<svg width="40" height="40" viewBox="0 0 40 40" fill="none" xmlns="http://www.w3.org/2000/svg">
<path fill-rule="evenodd" clip-rule="evenodd" d="M11.4059 11.4059C10 12.8118 10 15.0745 10 19.6V20.4C10 24.9255 10 27.1882 11.4059 28.5941C12.8118 30 15.0745 30 19.6 30H20.4C24.9255 30 27.1882 30 28.5941 28.5941C30 27.1882 30 24.9255 30 20.4V19.6C30 15.0745 30 12.8118 28.5941 11.4059C27.1882 10 24.9255 10 20.4 10H19.6C15.0745 10 12.8118 10 11.4059 11.4059ZM13.375 16.0834C13.4834 21.2834 16.0834 24.4084 20.6417 24.4084H20.9001V21.4334C22.5751 21.6 23.8417 22.825 24.35 24.4084H26.7167C26.0667 22.0417 24.3583 20.7334 23.2916 20.2334C24.3583 19.6167 25.8583 18.1167 26.2166 16.0834H24.0666C23.5999 17.7334 22.2168 19.2334 20.9001 19.375V16.0834H18.75V21.85C17.4167 21.5167 15.7334 19.9 15.6584 16.0834H13.375Z" fill="#BDBDBD"/>
</svg>
