<svg width="40" height="40" viewBox="0 0 40 40" fill="none" xmlns="http://www.w3.org/2000/svg">
<path fill-rule="evenodd" clip-rule="evenodd" d="M11.4 11.4C10 12.812 10 15.074 10 19.6V20.4L10 20.5136C9.9999 24.97 9.99985 27.2117 11.4 28.6C12.812 30 15.074 30 19.6 30H20.4H20.5131C24.9698 30.0001 27.2117 30.0001 28.6 28.6C30 27.188 30 24.926 30 20.4V19.6V19.4869C30.0001 15.0302 30.0001 12.7883 28.6 11.4C27.188 10 24.926 10 20.4 10H19.6L19.4864 10C15.03 9.9999 12.7883 9.99985 11.4 11.4ZM20.0194 20.1972C21.6876 20.1972 23.0477 18.8372 23.0477 17.1689C23.0477 15.5006 21.6876 14.1406 20.0194 14.1406C18.333 14.1406 16.973 15.5006 16.973 17.1689C16.973 18.8372 18.333 20.1972 20.0194 20.1972ZM20.0194 15.9177C20.7084 15.9177 21.2706 16.4798 21.2706 17.1689C21.2706 17.858 20.7084 18.4201 20.0194 18.4201C19.3303 18.4201 18.7682 17.858 18.7682 17.1689C18.75 16.4798 19.3122 15.9177 20.0194 15.9177ZM21.2343 22.6815C21.8509 22.5364 22.4493 22.3007 22.9933 21.9561C23.4103 21.7023 23.5372 21.1401 23.2653 20.7231C23.0114 20.306 22.4493 20.1791 22.0322 20.4511C20.7991 21.2308 19.1852 21.2308 17.9522 20.4511C17.5351 20.1972 16.9911 20.306 16.7191 20.7231C16.4834 21.1401 16.6103 21.6841 17.0274 21.938C17.5714 22.2825 18.1698 22.5183 18.7863 22.6634L17.0999 24.3498C16.7554 24.6943 16.7554 25.2565 17.0999 25.601C17.2812 25.7823 17.4988 25.8548 17.7346 25.8548C17.9703 25.8548 18.1879 25.7641 18.3692 25.601L20.0375 23.9327L21.7058 25.601C22.0503 25.9455 22.6124 25.9455 22.957 25.601C23.3015 25.2565 23.3015 24.6943 22.957 24.3498L21.2343 22.6815Z" fill="#BDBDBD"/>
</svg>
