<svg width="40" height="40" viewBox="0 0 40 40" fill="none" xmlns="http://www.w3.org/2000/svg">
<path d="M20 9.00009C13.9249 9.00009 9 13.925 9 20C9 24.6602 11.8994 28.644 15.9913 30.2467C15.8952 29.3764 15.8082 28.0379 16.0294 27.0878C16.2293 26.2293 17.3193 21.6201 17.3193 21.6201C17.3193 21.6201 16.9903 20.9612 16.9903 19.987C16.9903 18.4574 17.8768 17.3155 18.9807 17.3155C19.9192 17.3155 20.3724 18.0201 20.3724 18.865C20.3724 19.8088 19.7716 21.2199 19.4615 22.5275C19.2023 23.6223 20.0105 24.5152 21.0904 24.5152C23.0454 24.5152 24.5483 22.4537 24.5483 19.4781C24.5483 16.8443 22.6558 15.0029 19.9535 15.0029C16.8236 15.0029 14.9865 17.3504 14.9865 19.7765C14.9865 20.7219 15.3507 21.7357 15.8052 22.2868C15.8951 22.3958 15.9082 22.4912 15.8815 22.6023C15.798 22.9498 15.6124 23.6969 15.576 23.8498C15.528 24.0512 15.4166 24.0939 15.2081 23.9969C13.8343 23.3574 12.9753 21.3488 12.9753 19.7355C12.9753 16.2656 15.4964 13.0789 20.2434 13.0789C24.0593 13.0789 27.0247 15.7981 27.0247 19.432C27.0247 23.223 24.6344 26.2739 21.3167 26.2739C20.202 26.2739 19.1542 25.6949 18.7955 25.0109C18.7955 25.0109 18.2439 27.1111 18.1102 27.6258C17.8619 28.5812 17.1914 29.7788 16.743 30.5095C17.7722 30.8281 18.866 31 20 31C26.0751 31 31 26.0751 31 20C31 13.925 26.0751 9.00009 20 9.00009Z" fill="#BDBDBD"/>
</svg>
